<?xml version="1.0" encoding="utf-8"?>
<!-- Generator: Adobe Illustrator 16.0.3, SVG Export Plug-In . SVG Version: 6.00 Build 0)  -->
<!DOCTYPE svg PUBLIC "-//W3C//DTD SVG 1.1//EN" "http://www.w3.org/Graphics/SVG/1.1/DTD/svg11.dtd">
<svg version="1.1" id="Layer_1" xmlns="http://www.w3.org/2000/svg" xmlns:xlink="http://www.w3.org/1999/xlink" x="0px" y="0px"
	 width="100px" height="100px" viewBox="0 0 100 100" enable-background="new 0 0 100 100" xml:space="preserve">
<g>
	<path fill="#98C14E" d="M-883.485,89.197c0-30.477,0-60.953,0-91.429c0.495-2.362,1.927-3.787,4.286-4.286
		c30.476,0,60.952,0,91.429,0c2.358,0.499,3.791,1.923,4.285,4.286c0,30.476,0,60.953,0,91.429
		c-0.494,2.361-1.927,3.787-4.285,4.285c-30.477,0-60.953,0-91.429,0C-881.559,92.984-882.99,91.559-883.485,89.197z
		 M-833.224,47.022c0.35,0.214,0.281,0.481,0.283,0.728c0.006,0.928,0.018,1.852,0.158,2.775c0.502,3.336,2.168,5.104,5.47,5.807
		c2.424,0.516,4.876,0.836,7.332,1.133c2.774,0.337,4.271,1.64,4.909,4.392c0.6,2.598,0.723,5.226,0.418,7.872
		c-0.223,1.93-0.935,2.832-2.582,3.125c-2.715,0.482-5.445,0.488-8.172,0.072c-0.955-0.146-1.528-0.727-1.756-1.647
		c-0.143-0.579-0.209-1.172-0.172-1.771c0.074-1.195,0.635-1.881,1.804-2.173c0.933-0.233,1.884-0.231,2.837-0.18
		c0.734,0.039,0.898-0.106,0.779-0.794c-0.227-1.314-0.211-2.6,0.253-3.867c0.172-0.469,0.007-0.716-0.524-0.73
		c-1.928-0.054-3.854-0.1-5.771,0.162c-2.909,0.398-4.664,1.936-5.324,4.717c-0.693,2.92-0.674,5.852,0.006,8.771
		c0.494,2.121,1.773,3.597,3.819,4.381c1.115,0.428,2.274,0.695,3.46,0.826c3.559,0.393,7.124,0.403,10.691,0.128
		c3.176-0.245,5.586-1.718,7.145-4.53c0.6-1.084,1.107-2.21,1.557-3.363c1.527-3.923,2.371-8.016,3.023-12.158
		c0.703-4.467,1.252-8.953,1.368-13.479c0.085-3.31-0.117-6.613-0.252-9.917c-0.237-5.801-0.56-11.595-1.311-17.358
		c-0.476-3.664-2.066-5.493-5.642-6.355c-5.681-1.37-11.451-1.852-17.281-1.667c-0.727,0.023-1.07-0.135-1.285-0.906
		c-0.59-2.107-2.012-3.49-4.123-4.063c-3.676-1-7.424-1.238-11.175-0.58c-2.737,0.481-5.421,2.067-5.243,6.257
		c0.101,2.353,0.059,4.713,0.058,7.069c0,1.649-0.932,2.665-2.58,2.85c-0.354,0.04-0.711,0.051-1.068,0.052
		c-2.379,0.012-4.762-0.046-7.139,0.041c-3.058,0.111-4.935,1.814-5.444,4.829c-0.195,1.156-0.125,2.328,0.001,3.489
		c0.438,4.023,1.136,8.006,1.945,11.969c0.662,3.237,1.308,6.484,2.562,9.56c0.724,1.775,2.013,2.955,3.858,3.545
		c3.083,0.983,6.208,1.81,9.392,2.388c2.712,0.493,5.422,1.02,8.176,1.252c1.898,0.161,2.953-0.482,3.654-2.267
		c1.078-2.746,1.682-5.596,1.791-8.547C-833.296,48.245-833.257,47.635-833.224,47.022z M-863.125,21.647
		c0.509-0.337,1.146-0.578,1.807-0.75c1.712-0.447,3.456-0.261,5.188-0.29c1.428-0.023,2.857,0.014,4.285-0.021
		c0.915-0.021,1.071-0.22,1.074-1.12c0.003-0.81-0.02-1.62,0.004-2.428c0.086-2.851-0.53-5.753,0.577-8.575
		C-854.501,12.859-858.813,17.253-863.125,21.647z"/>
	<path fill-rule="evenodd" clip-rule="evenodd" fill="#FDFEFD" d="M-833.224,47.022c-0.033,0.612-0.072,1.223-0.094,1.835
		c-0.109,2.951-0.713,5.801-1.791,8.547c-0.701,1.784-1.756,2.428-3.654,2.267c-2.753-0.232-5.463-0.759-8.176-1.252
		c-3.184-0.578-6.308-1.404-9.392-2.388c-1.846-0.59-3.134-1.77-3.858-3.545c-1.255-3.076-1.9-6.323-2.562-9.56
		c-0.81-3.962-1.507-7.945-1.945-11.969c-0.126-1.161-0.197-2.333-0.001-3.489c0.509-3.014,2.387-4.718,5.444-4.829
		c2.377-0.086,4.759-0.029,7.139-0.041c0.357-0.001,0.715-0.012,1.068-0.052c1.648-0.185,2.58-1.201,2.58-2.85
		c0-2.356,0.042-4.716-0.058-7.069c-0.178-4.19,2.506-5.776,5.243-6.257c3.751-0.659,7.499-0.42,11.175,0.58
		c2.111,0.573,3.533,1.956,4.123,4.063c0.215,0.771,0.559,0.929,1.285,0.906c5.83-0.185,11.601,0.297,17.281,1.667
		c3.575,0.862,5.166,2.692,5.642,6.355c0.751,5.763,1.073,11.558,1.311,17.358c0.135,3.305,0.337,6.608,0.252,9.917
		c-0.116,4.525-0.665,9.012-1.368,13.479c-0.652,4.143-1.496,8.235-3.023,12.158c-0.449,1.153-0.957,2.279-1.557,3.363
		c-1.559,2.812-3.969,4.285-7.145,4.53c-3.567,0.275-7.133,0.265-10.691-0.128c-1.186-0.131-2.345-0.398-3.46-0.826
		c-2.046-0.784-3.325-2.26-3.819-4.381c-0.68-2.92-0.699-5.852-0.006-8.771c0.66-2.781,2.415-4.318,5.324-4.717
		c1.918-0.262,3.844-0.216,5.771-0.162c0.531,0.015,0.696,0.262,0.524,0.73c-0.464,1.268-0.479,2.553-0.253,3.867
		c0.119,0.688-0.045,0.833-0.779,0.794c-0.953-0.052-1.904-0.054-2.837,0.18c-1.169,0.292-1.729,0.978-1.804,2.173
		c-0.037,0.599,0.029,1.191,0.172,1.771c0.228,0.921,0.801,1.501,1.756,1.647c2.727,0.416,5.457,0.41,8.172-0.072
		c1.647-0.293,2.359-1.195,2.582-3.125c0.305-2.646,0.182-5.274-0.418-7.872c-0.638-2.752-2.135-4.055-4.909-4.392
		c-2.456-0.297-4.908-0.617-7.332-1.133c-3.302-0.702-4.968-2.471-5.47-5.807c-0.141-0.924-0.152-1.848-0.158-2.775
		C-832.942,47.504-832.874,47.236-833.224,47.022z M-813.196,41.632c0.052-0.417-0.076-0.882-0.176-1.343
		c-0.436-2.012-1.68-3.087-3.648-3.189c-1.757-0.091-3.109,0.931-3.724,2.826c-0.108,0.339-0.187,0.687-0.272,1.032
		c-0.127,0.508,0.047,0.697,0.588,0.625c2.204-0.294,4.357-0.063,6.458,0.67C-813.157,42.537-813.157,42.539-813.196,41.632z"/>
	<path fill-rule="evenodd" clip-rule="evenodd" fill="#FAFDF9" d="M-863.125,21.647c4.312-4.395,8.624-8.788,12.935-13.183
		c-1.107,2.822-0.491,5.725-0.577,8.575c-0.024,0.809-0.001,1.619-0.004,2.428c-0.003,0.899-0.16,1.098-1.074,1.12
		c-1.427,0.034-2.856-0.003-4.285,0.021c-1.732,0.029-3.477-0.157-5.188,0.29C-861.979,21.07-862.616,21.31-863.125,21.647z"/>
	<path fill-rule="evenodd" clip-rule="evenodd" fill="#98C14E" d="M-813.196,41.632c0.039,0.907,0.039,0.905-0.774,0.621
		c-2.101-0.733-4.254-0.964-6.458-0.67c-0.541,0.072-0.715-0.116-0.588-0.625c0.086-0.345,0.164-0.693,0.272-1.032
		c0.614-1.896,1.967-2.917,3.724-2.826c1.969,0.102,3.213,1.177,3.648,3.189C-813.272,40.75-813.145,41.215-813.196,41.632z"/>
</g>
<g>
	<path fill="#3B569D" d="M-757.465,90.616c0-30.078,0-60.156,0-90.234c0.031-0.121,0.065-0.241,0.093-0.362
		c0.5-2.26,1.851-3.721,4.087-4.348c0.232-0.065,0.468-0.116,0.703-0.173c30.078,0,60.156,0,90.234,0
		c0.076,0.027,0.149,0.066,0.228,0.081c2.372,0.441,3.853,1.849,4.502,4.156c0.06,0.213,0.103,0.431,0.153,0.646
		c0,30.078,0,60.156,0,90.234c-0.03,0.104-0.066,0.208-0.089,0.314c-0.476,2.292-1.839,3.758-4.092,4.396
		c-0.231,0.065-0.468,0.115-0.702,0.173c-8.691,0-17.383,0-26.074,0c0-12.743,0.003-25.485-0.011-38.229
		c-0.001-0.451,0.121-0.553,0.559-0.551c3.987,0.017,7.975,0.006,11.962,0.017c0.332,0.001,0.463-0.054,0.507-0.431
		c0.247-2.099,0.535-4.192,0.809-6.288c0.338-2.595,0.665-5.191,1.021-7.784c0.064-0.467-0.073-0.554-0.515-0.553
		c-4.605,0.016-9.212,0.002-13.817,0.021c-0.441,0.002-0.527-0.119-0.524-0.537c0.019-3.027,0.013-6.054,0.008-9.081
		c-0.002-0.88,0.045-1.756,0.202-2.623c0.279-1.548,0.922-2.876,2.332-3.714c1.345-0.799,2.84-1.017,4.362-1.035
		c2.668-0.032,5.338-0.021,8.007-0.004c0.41,0.002,0.543-0.072,0.54-0.521c-0.021-4.149-0.021-8.3,0.001-12.45
		c0.002-0.482-0.164-0.581-0.599-0.621c-2.674-0.247-5.354-0.371-8.037-0.448c-2.864-0.083-5.727-0.104-8.543,0.564
		c-4.737,1.124-8.544,3.571-11.069,7.816c-2.009,3.377-2.761,7.095-2.806,10.972c-0.044,3.726-0.02,7.454-0.003,11.18
		c0.001,0.415-0.113,0.501-0.512,0.5c-4.036-0.016-8.072-0.005-12.108-0.018c-0.371-0.001-0.487,0.079-0.486,0.474
		c0.015,4.703,0.015,9.406,0,14.109c-0.001,0.398,0.121,0.473,0.488,0.472c4.004-0.013,8.007,0.002,12.011-0.02
		c0.483-0.003,0.61,0.103,0.609,0.602c-0.017,12.727-0.013,25.453-0.013,38.18c-16.178,0-32.357,0-48.535,0
		c-0.092-0.029-0.182-0.068-0.276-0.086c-2.126-0.396-3.545-1.633-4.303-3.639C-757.302,91.403-757.366,91.003-757.465,90.616z"/>
	<path fill-rule="evenodd" clip-rule="evenodd" fill="#FEFEFE" d="M-704.047,95.499c0-12.727-0.004-25.453,0.013-38.18
		c0.001-0.499-0.126-0.604-0.609-0.602c-4.003,0.021-8.007,0.007-12.011,0.02c-0.368,0.001-0.49-0.073-0.488-0.472
		c0.015-4.703,0.015-9.406,0-14.109c-0.001-0.395,0.115-0.475,0.486-0.474c4.036,0.013,8.072,0.002,12.108,0.018
		c0.398,0.001,0.513-0.085,0.512-0.5c-0.017-3.727-0.041-7.454,0.003-11.18c0.045-3.876,0.797-7.594,2.806-10.972
		c2.525-4.245,6.332-6.692,11.069-7.816c2.816-0.668,5.679-0.646,8.543-0.564c2.683,0.077,5.363,0.201,8.037,0.448
		c0.435,0.04,0.601,0.138,0.599,0.621c-0.022,4.15-0.021,8.3-0.001,12.45c0.003,0.449-0.13,0.524-0.54,0.521
		c-2.669-0.017-5.339-0.027-8.007,0.004c-1.522,0.018-3.018,0.236-4.362,1.035c-1.41,0.837-2.053,2.166-2.332,3.714
		c-0.157,0.867-0.204,1.743-0.202,2.623c0.005,3.027,0.011,6.054-0.008,9.081c-0.003,0.418,0.083,0.539,0.524,0.537
		c4.605-0.019,9.212-0.006,13.817-0.021c0.441-0.001,0.579,0.086,0.515,0.553c-0.356,2.593-0.684,5.189-1.021,7.784
		c-0.273,2.096-0.562,4.189-0.809,6.288c-0.044,0.377-0.175,0.432-0.507,0.431c-3.987-0.011-7.975,0-11.962-0.017
		c-0.438-0.002-0.56,0.1-0.559,0.551c0.014,12.743,0.011,25.485,0.011,38.229C-693.63,95.499-698.839,95.499-704.047,95.499z"/>
</g>
<g>
	<path fill="#DC4D38" d="M-630.485,14.011c0-3.284,0-6.567,0-9.85c0.296-0.149,0.286-0.452,0.351-0.713
		c0.778-3.133,2.677-5.171,5.814-6.029c0.291-0.079,0.698-0.028,0.835-0.437c28.444,0,56.889,0,85.333,0
		c0.474,0.306,1.034,0.335,1.555,0.483c2.901,0.826,4.772,2.667,5.586,5.586c0.151,0.543,0.195,1.125,0.526,1.61
		c0,6.232,0,12.465,0,18.698c-0.161-0.024-0.321-0.07-0.482-0.07c-5.693-0.004-11.386-0.017-17.079,0.012
		c-0.71,0.004-0.934-0.13-0.928-0.899c0.038-5.591,0.011-11.182,0.034-16.773c0.003-0.623-0.156-0.803-0.787-0.79
		c-2.026,0.042-4.055,0.054-6.081-0.004c-0.806-0.023-1.07,0.142-1.062,1.022c0.048,5.508,0.01,11.015,0.042,16.523
		c0.004,0.723-0.152,0.929-0.903,0.924c-5.581-0.035-11.163-0.01-16.745-0.032c-0.609-0.002-0.818,0.146-0.806,0.786
		c0.04,2.058,0.045,4.117-0.002,6.175c-0.015,0.685,0.22,0.813,0.85,0.811c5.582-0.023,11.164,0,16.746-0.03
		c0.703-0.004,0.861,0.201,0.858,0.88c-0.027,5.647-0.007,11.294-0.029,16.94c-0.002,0.605,0.13,0.814,0.773,0.801
		c2.082-0.044,4.167-0.057,6.248,0.005c0.766,0.022,0.904-0.225,0.901-0.934c-0.029-5.619-0.011-11.238-0.026-16.857
		c-0.001-0.552,0.034-0.84,0.733-0.836c5.915,0.034,11.83,0.024,17.745,0.027c0,20.478,0,40.958,0,61.436
		c-0.22,0.073-0.252,0.281-0.305,0.459c-0.58,1.944-1.953,2.991-3.847,3.499c-0.566,0.152-1.164,0.237-1.682,0.549
		c-12.89,0-25.778,0-38.667,0c0.016-0.135,0.01-0.275,0.049-0.402c1.974-6.419,1.18-12.413-2.818-17.872
		c-3.453-4.715-8.011-8.272-12.554-11.838c-1.822-1.365-3.669-2.699-5.28-4.327c-1.671-1.69-2.533-3.621-2.019-6.044
		c0.326-1.534,1.095-2.806,2.12-3.958c1.69-1.9,3.755-3.376,5.653-5.041c6.31-5.535,8.806-12.507,7.813-20.776
		c-0.706-5.878-3.541-10.631-7.869-14.562c-0.205-0.186-0.508-0.315-0.578-0.7c2.689,0,5.325-0.012,7.959,0.01
		c0.507,0.004,0.89-0.143,1.277-0.462c1.823-1.5,3.668-2.975,5.505-4.458c0.637-0.514,1.275-1.026,2.111-1.699
		c-0.399,0-0.553,0-0.707,0c-9.969,0-19.938-0.025-29.907,0.014c-4.174,0.016-8.313,0.447-12.36,1.549
		C-621.825,7.842-626.455,10.375-630.485,14.011z"/>
	<path fill-rule="evenodd" clip-rule="evenodd" fill="#FCFBFB" d="M-630.485,14.011c4.031-3.636,8.66-6.169,13.896-7.595
		c4.047-1.103,8.186-1.533,12.36-1.549c9.969-0.039,19.938-0.013,29.907-0.014c0.154,0,0.308,0,0.707,0
		c-0.836,0.673-1.475,1.185-2.111,1.699c-1.837,1.483-3.682,2.958-5.505,4.458c-0.388,0.319-0.771,0.466-1.277,0.462
		c-2.635-0.022-5.271-0.01-7.959-0.01c0.07,0.385,0.373,0.514,0.578,0.7c4.328,3.932,7.164,8.685,7.869,14.562
		c0.993,8.269-1.503,15.241-7.813,20.776c-1.898,1.665-3.963,3.141-5.653,5.041c-1.025,1.152-1.794,2.424-2.12,3.958
		c-0.514,2.423,0.348,4.354,2.019,6.044c1.611,1.628,3.458,2.962,5.28,4.327c-0.587,0.196-1.191,0.232-1.807,0.231
		c-5.303-0.006-10.605-0.003-15.908-0.004c-0.473,0-0.954-0.041-1.324,0.347c-2.551-3.938-2.552-8.017-0.583-12.253
		c-0.727,0.048-1.356,0.076-1.983,0.132c-6.592,0.591-12.541-1.071-17.821-5.09c-0.237-0.181-0.429-0.441-0.751-0.496
		C-630.485,37.829-630.485,25.919-630.485,14.011z M-606.456,49.604c1.372,0.057,3.356-0.203,5.241-1.042
		c4.327-1.927,7.665-7.296,7.542-12.245c-0.138-5.616-1.462-10.951-3.989-15.967c-1.594-3.165-3.641-5.982-6.568-8.063
		c-6.868-4.885-16.675-2.083-19.526,5.576c-0.617,1.656-0.892,3.387-0.968,5.145c-0.303,6.954,0.876,13.559,4.864,19.415
		C-616.817,46.889-612.755,49.677-606.456,49.604z"/>
	<path fill-rule="evenodd" clip-rule="evenodd" fill="#DC4D38" d="M-583.485,96.982c-13.778,0-27.556,0-41.333,0
		c-0.517-0.482-1.219-0.441-1.835-0.627c-1.627-0.489-2.874-1.375-3.456-3.041c-0.071-0.203-0.121-0.436-0.376-0.506
		c0-3.005,0-6.01,0-9.015c2.159-2.772,4.964-4.683,8.192-5.945c6.361-2.491,13.007-3.165,19.78-2.923
		c0.387,0.014,0.677,0.203,0.976,0.412c1.408,0.989,2.823,1.97,4.234,2.954c3.118,2.177,6.303,4.263,9.163,6.788
		c1.506,1.33,2.909,2.761,3.854,4.556c1.176,2.231,1.797,4.549,0.783,7.039C-583.538,96.761-583.493,96.879-583.485,96.982z"/>
	<path fill-rule="evenodd" clip-rule="evenodd" fill="#FCFBFB" d="M-530.485,31.04c-5.915-0.003-11.83,0.007-17.745-0.027
		c-0.699-0.004-0.734,0.284-0.733,0.836c0.016,5.619-0.003,11.238,0.026,16.857c0.003,0.709-0.136,0.956-0.901,0.934
		c-2.081-0.062-4.166-0.049-6.248-0.005c-0.644,0.014-0.775-0.195-0.773-0.801c0.022-5.646,0.002-11.293,0.029-16.94
		c0.003-0.679-0.155-0.884-0.858-0.88c-5.582,0.03-11.164,0.006-16.746,0.03c-0.63,0.003-0.864-0.125-0.85-0.811
		c0.047-2.058,0.042-4.117,0.002-6.175c-0.013-0.641,0.196-0.789,0.806-0.786c5.582,0.021,11.164-0.003,16.745,0.032
		c0.751,0.005,0.907-0.201,0.903-0.924c-0.032-5.508,0.006-11.015-0.042-16.523c-0.008-0.88,0.257-1.045,1.062-1.022
		c2.026,0.058,4.055,0.045,6.081,0.004c0.631-0.013,0.79,0.167,0.787,0.79c-0.023,5.591,0.004,11.183-0.034,16.773
		c-0.006,0.77,0.218,0.903,0.928,0.899c5.693-0.029,11.386-0.016,17.079-0.012c0.161,0,0.321,0.046,0.482,0.07
		C-530.485,25.919-530.485,28.479-530.485,31.04z"/>
	<path fill-rule="evenodd" clip-rule="evenodd" fill="#F4F3F3" d="M-583.485,96.982c-0.008-0.104-0.052-0.222-0.018-0.308
		c1.014-2.49,0.393-4.808-0.783-7.039c-0.945-1.795-2.349-3.226-3.854-4.556c-2.86-2.525-6.045-4.611-9.163-6.788
		c-1.412-0.984-2.826-1.965-4.234-2.954c-0.299-0.209-0.588-0.398-0.976-0.412c-6.773-0.242-13.418,0.432-19.78,2.923
		c-3.228,1.263-6.033,3.173-8.192,5.945c0-2.838,0-5.677,0-8.515c0.124-0.049,0.264-0.075,0.368-0.151
		c1.834-1.351,3.889-2.231,6.068-2.834c3.908-1.081,7.916-1.33,11.941-1.396c1.646-0.027,3.292-0.005,4.939-0.005
		c0.018-0.094,0.036-0.189,0.054-0.284c-0.735-1.062-1.605-2.029-2.231-3.164c0.37-0.388,0.851-0.347,1.324-0.347
		c5.302,0.001,10.605-0.002,15.908,0.004c0.615,0.001,1.22-0.035,1.807-0.231c4.543,3.565,9.101,7.123,12.554,11.838
		c3.998,5.459,4.792,11.453,2.818,17.872c-0.039,0.127-0.033,0.268-0.049,0.402C-577.818,96.982-580.652,96.982-583.485,96.982z"/>
	<path fill-rule="evenodd" clip-rule="evenodd" fill="#DC4D38" d="M-609.347,67.444c0.626,1.135,1.497,2.103,2.231,3.164
		c-0.018,0.095-0.036,0.19-0.054,0.284c-1.646,0-3.293-0.022-4.939,0.005c-4.026,0.066-8.034,0.315-11.941,1.396
		c-2.179,0.603-4.234,1.483-6.068,2.834c-0.104,0.076-0.244,0.103-0.368,0.151c0-8.514,0-17.028,0-25.542
		c0.322,0.055,0.514,0.315,0.751,0.496c5.28,4.019,11.229,5.681,17.821,5.09c0.626-0.056,1.256-0.084,1.983-0.132
		C-611.899,59.428-611.897,63.507-609.347,67.444z"/>
	<path fill-rule="evenodd" clip-rule="evenodd" fill="#DC4D38" d="M-606.456,49.604c-6.3,0.073-10.362-2.715-13.404-7.183
		c-3.988-5.855-5.167-12.461-4.864-19.415c0.077-1.757,0.352-3.488,0.968-5.145c2.851-7.66,12.658-10.461,19.526-5.576
		c2.927,2.082,4.975,4.899,6.568,8.063c2.526,5.017,3.851,10.351,3.989,15.967c0.122,4.949-3.215,10.318-7.542,12.245
		C-603.1,49.4-605.084,49.66-606.456,49.604z"/>
</g>
<g>
	<path fill="#007BB4" d="M-503.292,0.075c29.228,0,58.455,0,87.682,0c0.287,0.094,0.573,0.191,0.862,0.281
		c1.776,0.554,3.273,1.485,4.267,3.117c0.793,1.302,1.059,2.74,1.118,4.233c-0.008,0.306-0.021,0.612-0.021,0.918
		c-0.001,23.937-0.001,47.875-0.001,71.811c0,3.935-0.01,7.87,0.005,11.805c0.006,1.589-0.288,3.095-1.162,4.438
		c-1.579,2.429-3.889,3.391-6.723,3.389c-28.089-0.011-56.178-0.007-84.266-0.006c-0.258,0-0.517,0.01-0.776,0.014
		c-2.45-0.16-4.379-1.25-5.803-3.252c-0.612-0.861-0.88-1.856-1.172-2.846c0.003-0.188,0.008-0.376,0.008-0.565
		c0-28.829,0-57.657,0-86.486c0-0.212-0.01-0.423-0.015-0.636c0.585-2.69,2.003-4.703,4.642-5.721
		C-504.199,0.396-503.744,0.239-503.292,0.075z M-456.02,43.992c-0.185-0.277-0.108-0.515-0.109-0.736
		c-0.008-1.625-0.037-3.252,0.012-4.876c0.021-0.696-0.209-0.874-0.879-0.869c-4.14,0.027-8.281,0.013-12.421,0.014
		c-0.975,0-0.976,0-0.976,0.969c0,15.292,0,30.582,0,45.873c0,0.948,0.001,0.95,0.942,0.95c4.282,0.001,8.563,0.001,12.845,0.001
		c1.059,0,1.062-0.001,1.062-1.05c0.001-7.469-0.02-14.938,0.015-22.406c0.008-1.735,0.018-3.48,0.383-5.196
		c0.407-1.91,0.994-3.74,2.463-5.124c1.979-1.863,4.404-2.247,7-2.023c3.74,0.322,5.377,2.667,6.078,5.521
		c0.383,1.561,0.553,3.147,0.555,4.751c0.007,8.151,0.003,16.304,0.003,24.456c0,1.066,0.018,1.085,1.052,1.085
		c4.282,0.001,8.563,0.001,12.846,0c0.943,0,1.026-0.082,1.024-1.059c-0.016-9.141,0.057-18.28-0.074-27.42
		c-0.047-3.277-0.379-6.518-1.307-9.677c-1.478-5.026-4.541-8.503-9.671-9.997c-3.211-0.935-6.459-1.14-9.753-0.603
		c-4.213,0.688-7.708,2.592-10.221,6.13C-455.444,43.116-455.716,43.54-456.02,43.992z M-494.538,61.376c0,7.656,0,15.312,0,22.968
		c0,0.966,0.021,0.987,0.99,0.987c4.304,0.001,8.609,0.001,12.913,0c0.987,0,1.054-0.062,1.052-1.03
		c-0.009-4.475-0.032-8.949-0.03-13.425c0.004-10.789,0.021-21.577,0.03-32.366c0.001-0.984-0.003-0.986-0.98-0.986
		c-4.352,0-8.703,0-13.055,0c-0.918,0-0.919,0.002-0.919,0.954C-494.538,46.111-494.538,53.744-494.538,61.376z M-487.162,31.066
		c4.838,0.008,8.711-3.791,8.72-8.552c0.009-4.801-3.795-8.701-8.498-8.711c-4.869-0.011-8.718,3.747-8.729,8.523
		C-495.679,27.215-491.938,31.058-487.162,31.066z"/>
	<path fill-rule="evenodd" clip-rule="evenodd" fill="#DEEDF4" d="M-509.282,93.977l-0.042,0.017l-0.039-0.025
		c0-29.224,0-58.448,0-87.671l0.034-0.028l0.039,0.02c0.005,0.212,0.015,0.424,0.015,0.636c0.001,28.829,0.001,57.657,0,86.486
		C-509.274,93.601-509.279,93.788-509.282,93.977z"/>
	<path fill-rule="evenodd" clip-rule="evenodd" fill="#FDFEFE" d="M-456.02,43.992c0.304-0.452,0.575-0.876,0.867-1.287
		c2.513-3.538,6.008-5.442,10.221-6.13c3.294-0.537,6.542-0.332,9.753,0.603c5.13,1.494,8.193,4.97,9.671,9.997
		c0.928,3.159,1.26,6.4,1.307,9.677c0.131,9.14,0.059,18.279,0.074,27.42c0.002,0.977-0.081,1.059-1.024,1.059
		c-4.282,0.001-8.563,0.001-12.846,0c-1.034,0-1.052-0.019-1.052-1.085c0-8.152,0.004-16.305-0.003-24.456
		c-0.002-1.604-0.172-3.19-0.555-4.751c-0.701-2.854-2.338-5.2-6.078-5.521c-2.596-0.224-5.021,0.16-7,2.023
		c-1.469,1.384-2.056,3.214-2.463,5.124c-0.365,1.716-0.375,3.461-0.383,5.196c-0.034,7.468-0.014,14.938-0.015,22.406
		c0,1.049-0.003,1.05-1.062,1.05c-4.282,0-8.563,0-12.845-0.001c-0.94,0-0.942-0.002-0.942-0.95c0-15.291,0-30.581,0-45.873
		c0-0.969,0.001-0.969,0.976-0.969c4.141,0,8.281,0.013,12.421-0.014c0.67-0.005,0.9,0.173,0.879,0.869
		c-0.049,1.624-0.02,3.251-0.012,4.876C-456.128,43.477-456.204,43.715-456.02,43.992z"/>
	<path fill-rule="evenodd" clip-rule="evenodd" fill="#FDFEFE" d="M-494.538,61.376c0-7.632,0-15.265,0-22.897
		c0-0.952,0.001-0.954,0.919-0.954c4.352,0,8.703,0,13.055,0c0.978,0,0.981,0.001,0.98,0.986c-0.01,10.789-0.026,21.577-0.03,32.366
		c-0.002,4.476,0.021,8.95,0.03,13.425c0.002,0.969-0.065,1.03-1.052,1.03c-4.304,0.001-8.609,0.001-12.913,0
		c-0.969,0-0.99-0.021-0.99-0.987C-494.538,76.688-494.538,69.032-494.538,61.376z"/>
	<path fill-rule="evenodd" clip-rule="evenodd" fill="#FDFEFE" d="M-487.162,31.066c-4.777-0.008-8.517-3.851-8.506-8.741
		c0.011-4.776,3.859-8.534,8.729-8.523c4.703,0.011,8.507,3.911,8.498,8.711C-478.451,27.275-482.324,31.074-487.162,31.066z"/>
</g>
<g>
	<path fill="#27A9E1" d="M-381.485,98.34c0-30.571,0-61.143,0-91.715c0.212-0.563,0.345-1.153,0.661-1.682
		c0.8-1.339,2.014-2.076,3.481-2.461c30.572,0,61.144,0,91.715,0c0.563,0.229,1.167,0.345,1.7,0.67
		c1.323,0.808,2.063,2.009,2.442,3.473c0,30.572,0,61.144,0,91.715c-0.212,0.563-0.345,1.153-0.661,1.682
		c-0.8,1.339-2.014,2.076-3.481,2.461c-30.571,0-61.143,0-91.715,0c-0.564-0.229-1.167-0.345-1.7-0.67
		C-380.366,101.005-381.106,99.803-381.485,98.34z M-363.13,32.667c0.036,0.234,0.206,0.299,0.327,0.396
		c10.154,8.143,20.313,16.279,30.455,24.437c0.477,0.384,0.736,0.338,1.184-0.013c10.268-8.036,20.548-16.055,30.822-24.082
		c0.271-0.211,0.6-0.367,0.814-0.737C-320.746,32.667-341.916,32.667-363.13,32.667z M-299.549,72.298
		c-0.102-0.287-0.332-0.383-0.51-0.521c-7.664-5.999-15.336-11.987-22.986-18.003c-0.504-0.396-0.793-0.339-1.249,0.022
		c-2.333,1.845-4.697,3.65-7.034,5.49c-0.341,0.269-0.551,0.284-0.899,0.002c-2.275-1.842-4.582-3.645-6.851-5.493
		c-0.446-0.363-0.715-0.4-1.187-0.02c-7.481,6.038-14.981,12.054-22.473,18.079c-0.146,0.117-0.397,0.178-0.369,0.443
		C-341.919,72.298-320.747,72.298-299.549,72.298z M-322.535,52.411c7.688,6.001,15.31,11.95,23.009,17.96
		c0-12.023,0-23.909,0-35.921C-307.236,40.469-314.858,46.418-322.535,52.411z M-363.161,70.317
		c0.273-0.204,0.464-0.338,0.646-0.483c7-5.61,14-11.221,20.999-16.833c0.731-0.586,0.731-0.592,0.03-1.154
		c-6.833-5.478-13.666-10.954-20.499-16.431c-0.364-0.291-0.73-0.579-1.177-0.933C-363.161,46.472-363.161,58.335-363.161,70.317z"
		/>
	<path fill-rule="evenodd" clip-rule="evenodd" fill="#FEFEFE" d="M-363.13,32.667c21.215,0,42.384,0,63.602,0
		c-0.215,0.37-0.544,0.526-0.814,0.737c-10.274,8.027-20.555,16.046-30.822,24.082c-0.448,0.351-0.707,0.396-1.184,0.013
		c-10.142-8.158-20.301-16.293-30.455-24.437C-362.925,32.966-363.094,32.901-363.13,32.667z"/>
	<path fill-rule="evenodd" clip-rule="evenodd" fill="#FEFEFE" d="M-299.549,72.298c-21.198,0-42.37,0-63.558,0
		c-0.028-0.266,0.223-0.326,0.369-0.443c7.492-6.025,14.992-12.041,22.473-18.079c0.472-0.381,0.74-0.344,1.187,0.02
		c2.269,1.849,4.576,3.651,6.851,5.493c0.348,0.282,0.559,0.267,0.899-0.002c2.337-1.84,4.701-3.646,7.034-5.49
		c0.456-0.361,0.745-0.419,1.249-0.022c7.65,6.016,15.322,12.004,22.986,18.003C-299.881,71.915-299.65,72.011-299.549,72.298z"/>
	<path fill-rule="evenodd" clip-rule="evenodd" fill="#FEFEFE" d="M-322.535,52.411c7.677-5.993,15.299-11.942,23.009-17.961
		c0,12.012,0,23.897,0,35.921C-307.226,64.361-314.848,58.412-322.535,52.411z"/>
	<path fill-rule="evenodd" clip-rule="evenodd" fill="#FEFEFE" d="M-363.161,70.317c0-11.982,0-23.846,0-35.834
		c0.447,0.354,0.813,0.642,1.177,0.933c6.833,5.477,13.666,10.953,20.499,16.431c0.702,0.562,0.701,0.568-0.03,1.154
		c-6.999,5.612-13.999,11.223-20.999,16.833C-362.697,69.979-362.888,70.113-363.161,70.317z"/>
</g>
<g>
	<path fill="#39B44A" d="M-158.628,104.482c-30.571,0-61.143,0-91.715,0c-0.586-0.237-1.214-0.356-1.763-0.705
		c-1.284-0.813-2.009-2-2.38-3.438c0-30.571,0-61.143,0-91.715c0.217-0.561,0.342-1.152,0.658-1.68
		c0.803-1.338,2.014-2.08,3.484-2.463c30.572,0,61.144,0,91.715,0c0.586,0.237,1.214,0.357,1.763,0.705
		c1.284,0.814,2.009,2,2.38,3.438c0,30.572,0,61.144,0,91.715c-0.217,0.561-0.342,1.152-0.658,1.68
		C-155.946,103.357-157.157,104.1-158.628,104.482z M-235.604,80.471c0.05-0.046,0.093-0.109,0.151-0.134
		c4.207-1.698,8.415-3.393,12.621-5.092c0.264-0.106,0.498-0.069,0.758,0.02c6.117,2.093,12.41,2.983,18.87,2.821
		c6.512-0.163,12.803-1.363,18.811-3.899c5.423-2.29,10.236-5.452,13.95-10.105c2.847-3.568,4.604-7.588,4.809-12.196
		c0.253-5.725-1.844-10.603-5.525-14.863c-3.802-4.399-8.593-7.39-13.938-9.534c-6.692-2.685-13.666-3.773-20.863-3.609
		c-6.562,0.149-12.9,1.354-18.949,3.918c-5.647,2.395-10.652,5.708-14.365,10.695c-3.977,5.341-5.431,11.253-3.626,17.772
		c1.354,4.893,4.328,8.728,8.146,11.96c0.358,0.304,0.521,0.627,0.574,1.081c0.417,3.637,0.004,7.163-1.348,10.571
		C-235.604,80.069-235.764,80.251-235.604,80.471c-0.007-0.041-0.013-0.083-0.02-0.125c-0.019,0.008-0.037,0.016-0.056,0.022
		C-235.653,80.402-235.628,80.437-235.604,80.471z"/>
	<path fill-rule="evenodd" clip-rule="evenodd" fill="#FEFEFE" d="M-235.604,80.473c-0.159-0.222,0-0.403,0.076-0.596
		c1.352-3.408,1.765-6.935,1.348-10.571c-0.053-0.454-0.216-0.777-0.574-1.081c-3.818-3.232-6.793-7.067-8.146-11.96
		c-1.805-6.519-0.351-12.431,3.626-17.772c3.713-4.987,8.718-8.3,14.365-10.695c6.049-2.564,12.388-3.77,18.949-3.918
		c7.197-0.164,14.171,0.925,20.863,3.609c5.346,2.144,10.137,5.135,13.938,9.534c3.682,4.26,5.778,9.138,5.525,14.863
		c-0.204,4.608-1.962,8.628-4.809,12.196c-3.714,4.653-8.527,7.815-13.95,10.105c-6.008,2.536-12.299,3.736-18.811,3.899
		c-6.46,0.162-12.753-0.729-18.87-2.821c-0.26-0.089-0.494-0.126-0.758-0.02c-4.206,1.699-8.414,3.394-12.621,5.092
		c-0.059,0.024-0.102,0.088-0.151,0.134L-235.604,80.473z"/>
	<path fill-rule="evenodd" clip-rule="evenodd" fill="#FEFEFE" d="M-235.604,80.471c-0.024-0.034-0.05-0.068-0.075-0.103
		c0.019-0.007,0.037-0.015,0.056-0.022c0.007,0.042,0.013,0.084,0.019,0.127L-235.604,80.471z"/>
</g>
<g>
	<path fill="#2DA9F2" d="M-125.485,103.34c0-30.571,0-61.143,0-91.715c0.221-0.562,0.347-1.156,0.664-1.686
		c0.802-1.336,2.016-2.069,3.479-2.457c30.572,0,61.144,0,91.715,0c0.561,0.233,1.164,0.346,1.697,0.67
		c1.326,0.807,2.062,2.012,2.445,3.473c0,30.572,0,61.144,0,91.715c-0.221,0.562-0.347,1.155-0.664,1.686
		c-0.802,1.336-2.015,2.069-3.479,2.457c-30.571,0-61.143,0-91.715,0c-0.561-0.233-1.164-0.346-1.697-0.67
		C-124.366,106.006-125.102,104.801-125.485,103.34z M-110.367,79.631c0.103,0.122,0.135,0.187,0.187,0.219
		c0.691,0.419,1.369,0.864,2.08,1.246c8.791,4.713,18.101,6.01,27.869,4.178c8.328-1.562,15.461-5.356,21.232-11.587
		c7.812-8.434,11.665-18.413,11.503-29.92c-0.006-0.485,0.15-0.775,0.532-1.063c2.335-1.759,4.357-3.831,6.065-6.205
		c0.151-0.211,0.366-0.407,0.384-0.814c-2.496,1.02-4.957,1.812-7.588,2.025c1.307-0.98,2.524-2.03,3.503-3.327
		c0.976-1.294,1.816-2.658,2.249-4.435c-0.356,0.182-0.523,0.263-0.687,0.351c-2.373,1.29-4.867,2.258-7.488,2.92
		c-0.664,0.168-1.085,0.024-1.569-0.448c-5.812-5.669-15.802-5.105-20.948,1.156c-2.844,3.459-3.855,7.409-3.168,11.813
		c0.127,0.812,0.13,0.83-0.696,0.756c-1.09-0.098-2.184-0.18-3.263-0.355c-10.069-1.641-18.451-6.303-25.093-14.064
		c-0.543-0.634-0.572-0.631-0.943,0.093c-2.735,5.335-1.793,11.997,2.305,16.391c0.692,0.743,1.479,1.381,2.254,2.054
		c-0.209,0.191-0.401,0.08-0.571,0.066c-1.777-0.142-3.457-0.645-5.045-1.439c-0.535-0.268-0.651-0.136-0.622,0.417
		c0.338,6.47,4.425,11.625,10.651,13.427c0.163,0.048,0.364,0.048,0.477,0.218c-0.101,0.146-0.249,0.147-0.388,0.176
		c-1.624,0.329-3.254,0.388-4.898,0.166c-0.779-0.105-0.793-0.081-0.498,0.651c1.887,4.673,5.281,7.632,10.146,8.92
		c0.883,0.233,1.793,0.318,2.824,0.474C-95.812,78.347-102.686,80.279-110.367,79.631z"/>
	<path fill-rule="evenodd" clip-rule="evenodd" fill="#FDFDFE" d="M-110.367,79.631c7.682,0.648,14.555-1.284,20.795-5.941
		c-1.031-0.155-1.941-0.24-2.824-0.474c-4.864-1.288-8.259-4.247-10.146-8.92c-0.295-0.732-0.281-0.757,0.498-0.651
		c1.645,0.222,3.274,0.163,4.898-0.166c0.139-0.028,0.287-0.029,0.388-0.176c-0.112-0.17-0.313-0.17-0.477-0.218
		c-6.227-1.802-10.313-6.957-10.651-13.427c-0.029-0.553,0.087-0.685,0.622-0.417c1.588,0.795,3.268,1.298,5.045,1.439
		c0.17,0.014,0.362,0.125,0.571-0.066c-0.775-0.673-1.562-1.312-2.254-2.054c-4.098-4.394-5.04-11.056-2.305-16.391
		c0.371-0.724,0.4-0.727,0.943-0.093c6.642,7.761,15.023,12.424,25.093,14.064c1.079,0.176,2.173,0.257,3.263,0.355
		c0.826,0.074,0.823,0.056,0.696-0.756c-0.688-4.404,0.324-8.354,3.168-11.813c5.146-6.262,15.137-6.825,20.948-1.156
		c0.484,0.472,0.905,0.616,1.569,0.448c2.621-0.662,5.115-1.63,7.488-2.92c0.163-0.088,0.33-0.169,0.687-0.351
		c-0.433,1.777-1.273,3.141-2.249,4.435c-0.979,1.297-2.196,2.347-3.503,3.327c2.631-0.212,5.092-1.005,7.588-2.025
		c-0.018,0.407-0.232,0.603-0.384,0.814c-1.708,2.374-3.73,4.446-6.065,6.205c-0.382,0.288-0.538,0.578-0.532,1.063
		c0.162,11.507-3.691,21.486-11.503,29.92c-5.771,6.23-12.904,10.025-21.232,11.587c-9.769,1.832-19.078,0.535-27.869-4.178
		c-0.711-0.382-1.389-0.827-2.08-1.246C-110.232,79.817-110.265,79.753-110.367,79.631z"/>
</g>
<g>
	<path fill="#FE4B01" d="M0,95.857C0,65.286,0,34.714,0,4.143C0.554,1.935,1.936,0.554,4.143,0c30.572,0,61.144,0,91.715,0
		c1.077,0.311,2.062,0.757,2.849,1.611c0.675,0.734,1.009,1.613,1.294,2.531c0,30.571,0,61.144,0,91.715
		c-0.554,2.208-1.936,3.589-4.143,4.143c-30.571,0-61.143,0-91.715,0c-1.077-0.311-2.062-0.757-2.848-1.611
		C0.619,97.654,0.285,96.775,0,95.857z M62.429,35.064c-0.689-0.246-1.409-0.178-2.106-0.12c-1.221,0.101-1.586-0.093-1.884-1.308
		c-0.796,0.809-1.538,1.564-2.28,2.319c-0.541,0.551-0.512,0.753,0.208,1.436c0.672,0.637,0.704,0.627,1.298,0.02
		c0.771-0.787,1.562-1.556,2.5-2.488c0,1.224,0,2.213,0,3.201c0.001,1.467,0.072,1.521,1.58,1.383
		c0.387-0.036,0.535-0.178,0.527-0.575c-0.021-1.071-0.016-2.143,0-3.214c0.003-0.214-0.133-0.485,0.159-0.636
		c0.783,0.797,1.563,1.598,2.351,2.391c0.732,0.738,0.84,0.734,1.577-0.031c0.132-0.137,0.256-0.281,0.376-0.429
		c0.133-0.163,0.186-0.347,0.02-0.513c-0.831-0.836-1.668-1.666-2.615-2.609c0.032,0.763-0.281,1.007-0.833,0.962
		C62.985,34.827,62.723,35,62.429,35.064z M44.379,43.878c-0.158-0.74-0.29-1.316-0.4-1.896c-0.086-0.449-0.297-0.679-0.791-0.747
		c-0.951-0.132-1.898-0.082-2.849-0.066c-0.587,0.011-0.787,0.254-0.784,0.876c0.028,5.188,0.017,10.375,0.017,15.562
		c0,3.402,0.015,6.806-0.015,10.208c-0.005,0.581,0.173,0.793,0.741,0.832c1.26,0.086,2.514,0.098,3.774-0.017
		c0.531-0.049,0.658-0.261,0.653-0.764c-0.024-2.331-0.001-4.663-0.019-6.995c-0.004-0.458,0.086-0.628,0.598-0.547
		c1.252,0.198,2.516,0.171,3.764-0.048c3.366-0.59,5.956-2.23,7.176-5.558c1.151-3.14,1.062-6.316-0.129-9.418
		c-1.291-3.361-4.85-5.11-8.244-4.155C46.394,41.561,45.245,42.436,44.379,43.878z M37.715,53.286c-0.008,0-0.016,0-0.023,0
		c0-1.81,0.043-3.619-0.009-5.427c-0.1-3.448-1.615-5.608-4.644-6.494c-3.077-0.898-6.118-0.43-9.123,0.467
		c-0.341,0.102-0.353,0.329-0.346,0.604c0.023,0.97,0.346,1.856,0.7,2.745c0.194,0.486,0.424,0.563,0.911,0.404
		c1.766-0.58,3.575-0.77,5.417-0.438c1.159,0.209,1.992,1.103,2.112,2.209c0.061,0.559-0.066,0.844-0.728,0.754
		c-1.401-0.191-2.804-0.099-4.188,0.178c-2.075,0.413-3.915,1.226-4.965,3.211c-1.907,3.61,0.209,7.834,4.339,8.626
		c3.386,0.649,6.72,0.287,10.015-0.641c0.438-0.124,0.54-0.359,0.537-0.771C37.706,56.903,37.715,55.095,37.715,53.286z
		 M75.844,51.715c1.881,0,3.761-0.013,5.641,0.009c0.469,0.006,0.662-0.1,0.701-0.616c0.076-1.025,0.097-2.047-0.053-3.06
		c-0.448-3.052-1.815-5.428-4.888-6.528c-1.265-0.453-2.57-0.485-3.875-0.357c-3.115,0.306-5.391,1.825-6.667,4.743
		c-1.183,2.705-1.23,5.483-0.563,8.309c0.616,2.611,2.125,4.52,4.646,5.469c3.271,1.23,6.578,0.992,9.861-0.047
		c0.324-0.103,0.462-0.268,0.41-0.625c-0.093-0.636-0.217-1.261-0.404-1.878c-0.146-0.483-0.382-0.568-0.84-0.395
		c-1.581,0.596-3.224,0.789-4.907,0.704c-3.276-0.165-4.996-1.816-5.31-5.084c-0.048-0.5,0.094-0.661,0.607-0.654
		C72.083,51.731,73.964,51.715,75.844,51.715z M15.663,44.429c-0.181,0.302-0.283,0.483-0.396,0.659
		c-2.97,4.619-5.938,9.237-8.912,13.854c-0.185,0.286-0.398,0.569-0.203,0.915c0.179,0.317,0.515,0.16,0.775,0.161
		c3.903,0.011,7.808,0.007,11.711,0.007c2.159,0,2.146,0.001,2.085-2.155c-0.015-0.53-0.155-0.748-0.743-0.741
		c-2.594,0.033-5.188,0.018-7.783,0.009c-0.193-0.001-0.419,0.1-0.604-0.104c0.114-0.187,0.223-0.368,0.337-0.546
		c2.981-4.611,5.963-9.223,8.945-13.834c0.181-0.279,0.428-0.557,0.256-0.911c-0.182-0.373-0.554-0.185-0.832-0.186
		c-3.762-0.013-7.522-0.009-11.283-0.009c-2.121,0-2.1-0.002-1.938,2.164c0.044,0.591,0.253,0.738,0.822,0.731
		C10.441,44.412,12.984,44.429,15.663,44.429z M64.504,50.641c0-2.854-0.012-5.71,0.01-8.565c0.005-0.549-0.143-0.747-0.72-0.734
		c-1.665,0.036-3.331,0.013-4.997,0.013c-2.037,0-2.114,0.082-2.013,2.137c0.089,1.793,0.09,1.833,1.862,1.777
		c0.701-0.021,0.797,0.233,0.793,0.843c-0.022,4.378,0.004,8.756-0.029,13.134c-0.005,0.678,0.248,0.857,0.851,0.899
		c1.117,0.078,2.229,0.066,3.348,0.004c0.69-0.039,0.921-0.305,0.911-1.013C64.48,56.304,64.504,53.473,64.504,50.641z
		 M87.619,44.208c-0.074-0.674-0.163-1.233-0.192-1.797c-0.035-0.681-0.276-1.066-1.04-0.993c-0.542,0.051-1.093,0.02-1.639,0.026
		c-0.409,0.005-0.589,0.194-0.588,0.621c0.008,5.808,0.009,11.615-0.002,17.423c-0.001,0.473,0.203,0.643,0.636,0.644
		c0.714,0.001,1.429-0.021,2.14,0.021c0.729,0.042,0.923-0.266,0.917-0.97c-0.026-3.165-0.061-6.332,0.025-9.495
		c0.077-2.85,1.582-4.578,4.103-4.919c0.468-0.063,0.949-0.044,1.424-0.026c0.312,0.012,0.469-0.062,0.521-0.403
		c0.123-0.807,0.106-1.612,0.05-2.42c-0.021-0.307-0.185-0.457-0.505-0.479c-1.755-0.12-3.37,0.188-4.663,1.492
		C88.422,43.318,88.064,43.728,87.619,44.208z M56.342,33.504c0.189,0,0.379,0,0.568,0c1.644,0,1.629,0,1.555-1.638
		c-0.018-0.391-0.161-0.477-0.511-0.469c-0.805,0.018-1.611,0.005-2.417,0.005c-1.482,0-1.533,0.071-1.389,1.55
		c0.041,0.43,0.22,0.573,0.629,0.557C55.299,33.487,55.82,33.503,56.342,33.504z M60.164,27.505c0,0.213,0,0.426,0,0.64
		c0,1.629,0,1.617,1.628,1.509c0.372-0.024,0.487-0.155,0.479-0.516c-0.021-0.782-0.007-1.564-0.007-2.347
		c0-1.471,0-1.471-1.471-1.385c-0.048,0.003-0.095,0.01-0.143,0.008c-0.365-0.013-0.501,0.169-0.489,0.525
		C60.178,26.462,60.165,26.983,60.164,27.505z M66.201,31.428c-0.167,0-0.333,0-0.499,0c-1.482,0-1.472,0-1.536,1.443
		c-0.02,0.425,0.097,0.607,0.549,0.591c0.736-0.028,1.473,0.003,2.209-0.01c1.515-0.025,1.312,0.278,1.347-1.37
		c0.01-0.475-0.12-0.709-0.646-0.663C67.154,31.459,66.676,31.428,66.201,31.428z M59.807,29.748
		c0.008-0.086,0.016-0.173,0.023-0.259c-0.746-0.722-1.511-1.426-2.232-2.171c-0.415-0.429-0.755-0.413-1.132,0.011
		c-0.142,0.16-0.293,0.312-0.452,0.455c-0.354,0.315-0.385,0.586-0.003,0.934c0.824,0.75,1.614,1.538,2.434,2.324
		C58.585,30.377,58.552,29.459,59.807,29.748z M64.144,30.911c0.72-0.718,1.298-1.293,1.875-1.87
		c1.043-1.042,1.025-1.236-0.143-2.143c-0.247-0.192-0.437-0.23-0.671,0.009c-0.766,0.776-1.542,1.542-2.312,2.313
		c-0.097,0.097-0.24,0.191-0.175,0.354s0.244,0.137,0.372,0.129C63.797,29.664,64.231,29.914,64.144,30.911z"/>
	<path fill-rule="evenodd" clip-rule="evenodd" fill="#FEFDFC" d="M44.379,43.878c0.866-1.442,2.015-2.317,3.492-2.732
		c3.395-0.955,6.953,0.794,8.244,4.155c1.19,3.102,1.28,6.278,0.129,9.418c-1.22,3.327-3.81,4.968-7.176,5.558
		c-1.248,0.219-2.512,0.246-3.764,0.048c-0.512-0.081-0.602,0.089-0.598,0.547c0.018,2.332-0.006,4.664,0.019,6.995
		c0.005,0.503-0.122,0.715-0.653,0.764c-1.261,0.114-2.515,0.103-3.774,0.017c-0.568-0.039-0.746-0.251-0.741-0.832
		c0.029-3.402,0.015-6.806,0.015-10.208c0-5.187,0.012-10.374-0.017-15.562c-0.003-0.622,0.197-0.865,0.784-0.876
		c0.95-0.016,1.897-0.065,2.849,0.066c0.494,0.068,0.705,0.298,0.791,0.747C44.089,42.562,44.221,43.138,44.379,43.878z
		 M44.715,51.991c0,1.271,0.036,2.319-0.014,3.363c-0.027,0.569,0.205,0.771,0.716,0.801c0.165,0.01,0.327,0.062,0.491,0.085
		c2.367,0.34,4.188-0.478,4.981-2.389c0.868-2.095,0.855-4.267,0.118-6.4c-0.387-1.121-1.193-1.87-2.427-2.051
		c-1.923-0.282-3.314,0.745-3.727,2.762C44.58,49.505,44.781,50.865,44.715,51.991z"/>
	<path fill-rule="evenodd" clip-rule="evenodd" fill="#FEFDFC" d="M37.715,53.286c0,1.809-0.009,3.617,0.007,5.427
		c0.003,0.412-0.1,0.647-0.537,0.771c-3.295,0.928-6.629,1.29-10.015,0.641c-4.13-0.792-6.246-5.016-4.339-8.626
		c1.05-1.985,2.89-2.798,4.965-3.211c1.384-0.276,2.786-0.369,4.188-0.178c0.661,0.09,0.788-0.195,0.728-0.754
		c-0.12-1.106-0.953-2-2.112-2.209c-1.842-0.332-3.651-0.143-5.417,0.438c-0.487,0.159-0.717,0.082-0.911-0.404
		c-0.354-0.889-0.677-1.775-0.7-2.745c-0.007-0.274,0.005-0.502,0.346-0.604c3.005-0.896,6.046-1.365,9.123-0.467
		c3.028,0.886,4.544,3.046,4.644,6.494c0.052,1.808,0.009,3.617,0.009,5.427C37.699,53.286,37.707,53.286,37.715,53.286z
		 M32.688,53.926c-0.003,0-0.005,0-0.007,0c0-0.618,0.015-1.236-0.008-1.854c-0.01-0.275-0.029-0.579-0.417-0.647
		c-1.337-0.234-2.644-0.218-3.905,0.364c-1.124,0.519-1.301,1.475-1.229,2.56c0.059,0.879,0.59,1.502,1.556,1.814
		c1.189,0.386,2.39,0.296,3.595,0.093c0.33-0.056,0.421-0.249,0.417-0.548C32.684,55.114,32.688,54.521,32.688,53.926z"/>
	<path fill-rule="evenodd" clip-rule="evenodd" fill="#FEFDFC" d="M75.844,51.715c-1.88,0-3.761,0.017-5.641-0.011
		c-0.514-0.007-0.655,0.154-0.607,0.654c0.313,3.268,2.033,4.919,5.31,5.084c1.684,0.085,3.326-0.108,4.907-0.704
		c0.458-0.174,0.694-0.089,0.84,0.395c0.188,0.617,0.312,1.242,0.404,1.878c0.052,0.357-0.086,0.522-0.41,0.625
		c-3.283,1.039-6.59,1.277-9.861,0.047c-2.521-0.949-4.029-2.857-4.646-5.469c-0.667-2.825-0.619-5.604,0.563-8.309
		c1.276-2.918,3.552-4.438,6.667-4.743c1.305-0.128,2.61-0.096,3.875,0.357c3.072,1.101,4.439,3.477,4.888,6.528
		c0.149,1.013,0.129,2.034,0.053,3.06c-0.039,0.517-0.232,0.622-0.701,0.616C79.604,51.702,77.725,51.715,75.844,51.715z
		 M74.128,48.999c1.306,0,2.611,0.006,3.916-0.004c0.234-0.002,0.596,0.113,0.584-0.308c-0.055-1.993-0.94-4.039-3.159-4.53
		c-3.183-0.704-5.269,1.019-5.785,4.346c-0.075,0.481,0.18,0.501,0.528,0.499C71.518,48.995,72.822,48.999,74.128,48.999z"/>
	<path fill-rule="evenodd" clip-rule="evenodd" fill="#FEFDFC" d="M15.663,44.429c-2.679,0-5.222-0.017-7.764,0.014
		c-0.569,0.007-0.778-0.141-0.822-0.731c-0.161-2.166-0.183-2.164,1.938-2.164c3.761,0,7.521-0.004,11.283,0.009
		c0.278,0.001,0.65-0.188,0.832,0.186c0.172,0.354-0.075,0.632-0.256,0.911c-2.982,4.611-5.964,9.223-8.945,13.834
		c-0.114,0.178-0.223,0.359-0.337,0.546c0.185,0.204,0.41,0.104,0.604,0.104c2.595,0.009,5.189,0.024,7.783-0.009
		c0.588-0.007,0.729,0.211,0.743,0.741c0.062,2.156,0.074,2.155-2.085,2.155c-3.903,0-7.808,0.004-11.711-0.007
		c-0.261-0.001-0.597,0.156-0.775-0.161c-0.195-0.346,0.019-0.629,0.203-0.915c2.974-4.616,5.942-9.234,8.912-13.854
		C15.38,44.912,15.482,44.73,15.663,44.429z"/>
	<path fill-rule="evenodd" clip-rule="evenodd" fill="#FEFBF9" d="M64.504,50.641c0,2.832-0.023,5.663,0.016,8.494
		c0.01,0.708-0.221,0.974-0.911,1.013c-1.118,0.062-2.23,0.074-3.348-0.004c-0.603-0.042-0.855-0.222-0.851-0.899
		c0.033-4.378,0.007-8.756,0.029-13.134c0.004-0.609-0.092-0.864-0.793-0.843c-1.772,0.056-1.773,0.016-1.862-1.777
		c-0.102-2.055-0.024-2.137,2.013-2.137c1.666,0,3.332,0.023,4.997-0.013c0.577-0.013,0.725,0.186,0.72,0.734
		C64.492,44.931,64.504,47.786,64.504,50.641z"/>
	<path fill-rule="evenodd" clip-rule="evenodd" fill="#FEFBF9" d="M87.619,44.208c0.445-0.48,0.803-0.89,1.186-1.275
		c1.293-1.305,2.908-1.612,4.663-1.492c0.32,0.021,0.483,0.172,0.505,0.479c0.057,0.808,0.073,1.613-0.05,2.42
		c-0.052,0.341-0.209,0.415-0.521,0.403c-0.475-0.018-0.956-0.037-1.424,0.026c-2.521,0.341-4.025,2.069-4.103,4.919
		c-0.086,3.163-0.052,6.33-0.025,9.495c0.006,0.704-0.188,1.012-0.917,0.97c-0.711-0.041-1.426-0.02-2.14-0.021
		c-0.433-0.001-0.637-0.171-0.636-0.644c0.011-5.808,0.01-11.615,0.002-17.423c-0.001-0.427,0.179-0.616,0.588-0.621
		c0.546-0.007,1.097,0.024,1.639-0.026c0.764-0.073,1.005,0.312,1.04,0.993C87.456,42.975,87.545,43.534,87.619,44.208z"/>
	<path fill-rule="evenodd" clip-rule="evenodd" fill="#FEFBF9" d="M62.431,35.082c-0.292,0.15-0.156,0.422-0.159,0.636
		c-0.016,1.071-0.021,2.143,0,3.214c0.008,0.397-0.141,0.539-0.527,0.575c-1.508,0.138-1.579,0.084-1.58-1.383
		c0-0.988,0-1.978,0-3.201c-0.938,0.933-1.729,1.701-2.5,2.488c-0.594,0.607-0.626,0.617-1.298-0.02
		c-0.72-0.683-0.749-0.885-0.208-1.436c0.742-0.755,1.484-1.511,2.28-2.319c0.298,1.215,0.663,1.408,1.884,1.308
		c0.697-0.058,1.417-0.126,2.106,0.12L62.431,35.082z"/>
	<path fill-rule="evenodd" clip-rule="evenodd" fill="#FEFBF9" d="M56.342,33.504c-0.521-0.001-1.043-0.017-1.564,0.005
		c-0.409,0.017-0.588-0.127-0.629-0.557c-0.145-1.479-0.094-1.55,1.389-1.55c0.806,0,1.612,0.013,2.417-0.005
		c0.35-0.008,0.493,0.078,0.511,0.469c0.074,1.638,0.089,1.638-1.555,1.638C56.721,33.504,56.531,33.504,56.342,33.504z"/>
	<path fill-rule="evenodd" clip-rule="evenodd" fill="#FEFBF9" d="M60.165,27.505c0-0.522,0.013-1.043-0.004-1.565
		c-0.012-0.356,0.124-0.538,0.489-0.525c0.048,0.002,0.095-0.005,0.143-0.008c1.471-0.086,1.471-0.086,1.471,1.385
		c0,0.782-0.014,1.565,0.007,2.347c0.009,0.36-0.106,0.491-0.479,0.516c-1.628,0.108-1.628,0.12-1.628-1.509
		C60.164,27.932,60.164,27.719,60.165,27.505z"/>
	<path fill-rule="evenodd" clip-rule="evenodd" fill="#FEFBF9" d="M66.201,31.428c0.475,0,0.953,0.031,1.424-0.009
		c0.525-0.046,0.655,0.188,0.646,0.663c-0.034,1.648,0.168,1.345-1.347,1.37c-0.736,0.013-1.473-0.019-2.209,0.01
		c-0.452,0.017-0.568-0.166-0.549-0.591c0.064-1.443,0.054-1.443,1.536-1.443C65.868,31.428,66.034,31.428,66.201,31.428z"/>
	<path fill-rule="evenodd" clip-rule="evenodd" fill="#FEFDFC" d="M59.807,29.748c-1.255-0.289-1.222,0.629-1.362,1.294
		c-0.819-0.786-1.609-1.574-2.434-2.324c-0.382-0.348-0.351-0.619,0.003-0.934c0.159-0.142,0.311-0.295,0.452-0.455
		c0.377-0.424,0.717-0.439,1.132-0.011c0.722,0.745,1.486,1.449,2.232,2.171C59.822,29.575,59.814,29.662,59.807,29.748z"/>
	<path fill-rule="evenodd" clip-rule="evenodd" fill="#FEFBF9" d="M64.144,30.911c0.088-0.997-0.347-1.247-1.053-1.207
		c-0.128,0.008-0.307,0.034-0.372-0.129s0.078-0.258,0.175-0.354c0.77-0.772,1.546-1.537,2.312-2.313
		c0.234-0.239,0.424-0.201,0.671-0.009c1.168,0.906,1.186,1.1,0.143,2.143C65.441,29.618,64.863,30.193,64.144,30.911z"/>
	<path fill-rule="evenodd" clip-rule="evenodd" fill="#FEFDFC" d="M62.431,35.082l-0.002-0.018c0.294-0.064,0.557-0.237,0.877-0.212
		c0.552,0.045,0.865-0.199,0.833-0.962c0.947,0.943,1.784,1.773,2.615,2.609c0.166,0.166,0.113,0.35-0.02,0.513
		c-0.12,0.147-0.244,0.292-0.376,0.429c-0.737,0.766-0.845,0.77-1.577,0.031C63.994,36.68,63.214,35.879,62.431,35.082z"/>
	<path fill-rule="evenodd" clip-rule="evenodd" fill="#FE4B01" d="M44.715,51.991c0.066-1.126-0.135-2.486,0.14-3.829
		c0.412-2.017,1.804-3.044,3.727-2.762c1.233,0.181,2.04,0.93,2.427,2.051c0.737,2.134,0.75,4.306-0.118,6.4
		c-0.793,1.911-2.614,2.729-4.981,2.389c-0.164-0.023-0.326-0.075-0.491-0.085c-0.511-0.03-0.743-0.231-0.716-0.801
		C44.751,54.311,44.715,53.263,44.715,51.991z"/>
	<path fill-rule="evenodd" clip-rule="evenodd" fill="#FE4B01" d="M32.688,53.926c0,0.595-0.005,1.188,0.002,1.782
		c0.004,0.299-0.087,0.492-0.417,0.548c-1.205,0.203-2.405,0.293-3.595-0.093c-0.966-0.312-1.497-0.936-1.556-1.814
		c-0.072-1.085,0.104-2.041,1.229-2.56c1.262-0.582,2.568-0.599,3.905-0.364c0.388,0.068,0.407,0.372,0.417,0.647
		c0.022,0.617,0.008,1.235,0.008,1.854C32.684,53.926,32.686,53.926,32.688,53.926z"/>
	<path fill-rule="evenodd" clip-rule="evenodd" fill="#FE4B01" d="M74.128,48.999c-1.306,0-2.61-0.004-3.916,0.003
		c-0.349,0.002-0.604-0.018-0.528-0.499c0.517-3.327,2.603-5.05,5.785-4.346c2.219,0.491,3.104,2.537,3.159,4.53
		c0.012,0.421-0.35,0.306-0.584,0.308C76.739,49.005,75.434,48.999,74.128,48.999z"/>
</g>
<g>
</g>
<g>
</g>
<g>
</g>
<g>
</g>
<g>
</g>
<g>
</g>
</svg>
